<svg xmlns="http://www.w3.org/2000/svg" version="1.1" xmlns:xlink="http://www.w3.org/1999/xlink" xmlns:svgjs="http://svgjs.dev/svgjs" viewBox="0 0 800 800" opacity="0.23"><defs><filter id="bbburst-blur-1" x="-100%" y="-100%" width="400%" height="400%"><feGaussianBlur in="SourceGraphic" stdDeviation="1"></feGaussianBlur></filter><filter id="bbburst-blur-2" x="-100%" y="-100%" width="400%" height="400%"><feGaussianBlur in="SourceGraphic" stdDeviation="2"></feGaussianBlur></filter><filter id="bbburst-blur-3" x="-100%" y="-100%" width="400%" height="400%"><feGaussianBlur in="SourceGraphic" stdDeviation="4"></feGaussianBlur></filter><filter id="bbburst-blur-4" x="-100%" y="-100%" width="400%" height="400%"><feGaussianBlur in="SourceGraphic" stdDeviation="12"></feGaussianBlur></filter><symbol id="bbburst-shape-1" viewBox="0 0 194 167"><path d="m97 0 96.129 166.5H.871L97 0Z"></path></symbol><symbol id="bbburst-shape-4" viewBox="0 0 149 143"><path d="M71.647 2.781c.898-2.764 4.808-2.764 5.706 0l15.445 47.534a3 3 0 0 0 2.853 2.073h49.98c2.906 0 4.115 3.719 1.764 5.427L106.96 87.193a2.999 2.999 0 0 0-1.09 3.354l15.445 47.534c.898 2.764-2.266 5.062-4.617 3.354l-40.435-29.378a3 3 0 0 0-3.526 0l-40.435 29.378c-2.351 1.708-5.515-.59-4.617-3.354L43.13 90.547a3 3 0 0 0-1.09-3.354L1.605 57.815c-2.35-1.708-1.142-5.427 1.764-5.427h49.98a3 3 0 0 0 2.853-2.073L71.647 2.781Z"></path></symbol><symbol id="bbburst-shape-6" viewBox="0 0 133 116"><path d="M59.7487 10.2513c-13.6683-13.66839-35.8291-13.66839-49.4974 0-13.66839 13.6683-13.66839 35.8291 0 49.4974l49.4974-49.4974ZM66.5 66.5 41.7513 91.2487 66.5 115.997l24.7487-24.7483L66.5 66.5Zm56.249-6.7513c13.668-13.6683 13.668-35.8291 0-49.4974-13.669-13.66839-35.8294-13.66839-49.4977 0l49.4977 49.4974Zm-112.4977 0 31.5 31.5 49.4974-49.4974-31.5-31.5-49.4974 49.4974Zm80.9974 31.5 31.5003-31.5-49.4977-49.4974-31.5 31.5 49.4974 49.4974Z"></path></symbol><symbol id="bbburst-shape-8" viewBox="0 0 87 168"><path d="m12 12 31.2546 18.0749c16.4102 9.4902 20.014 31.6325 7.4603 45.8369L36.3296 92.1884c-12.5684 14.2206-8.9394 36.3916 7.5068 45.8636L75 156" stroke-width="14" stroke-linecap="round" stroke-linejoin="round"></path></symbol><symbol id="bbburst-shape-10" viewBox="0 0 145 145"><circle cx="72.5" cy="72.5" r="61.5" fill="none" stroke-width="22"></circle></symbol></defs><use xlink:href="#bbburst-shape-4" width="22.796110603777482" opacity="0.6306984954566945" transform="matrix(0.9973077920012405,0.07332917573251695,-0.07332917573251695,0.9973077920012405,328.06414063789657,140.0326565144224)" fill="#2c2891" filter="url(#bbburst-blur-1)"></use><use xlink:href="#bbburst-shape-4" width="24.222228788279104" opacity="0.26905915529389024" transform="matrix(1.2446953447103113,0.11503694561522225,-0.11503694561522225,1.2446953447103113,754.2871846503319,-159.54008756242376)" fill="#2c2891" filter="url(#bbburst-blur-3)"></use><use xlink:href="#bbburst-shape-10" width="20.402040091384666" opacity="0.1752385803041583" transform="matrix(0.9901484646590182,0.7629587262318906,-0.7629587262318906,0.9901484646590182,700.900656226579,367.25471135245357)" fill="none" stroke="#2c2891" filter="url(#bbburst-blur-3)"></use><use xlink:href="#bbburst-shape-6" width="10.919881464650183" opacity="0.8855328420133151" transform="matrix(0.7659152136770071,-0.6429415879052346,0.6429415879052346,0.7659152136770071,163.36501761558338,142.33353670718617)" fill="#2c2891"></use><use xlink:href="#bbburst-shape-8" width="11.229723925626274" opacity="0.8291907429908393" transform="matrix(0.9841884849758807,-0.17712432368503372,0.17712432368503372,0.9841884849758807,395.0525276542246,-21.07266158640516)" fill="none" stroke="#2c2891"></use><use xlink:href="#bbburst-shape-8" width="27.899687867649995" opacity="0.2607179568021213" transform="matrix(1.0526136117361415,-0.674169551661743,0.674169551661743,1.0526136117361415,414.66406726605123,134.179384714241)" fill="none" stroke="#2c2891" filter="url(#bbburst-blur-3)"></use><use xlink:href="#bbburst-shape-1" width="28.85428737462312" opacity="0.10193160889334407" transform="matrix(1.7400073379935215,0.18674705815272982,-0.18674705815272982,1.7400073379935215,273.7438174856249,65.236088336492)" fill="#2c2891" filter="url(#bbburst-blur-4)"></use><use xlink:href="#bbburst-shape-10" width="25.693252061372153" opacity="0.37374121228688006" transform="matrix(0.9371876098168097,-0.34882572153706665,0.34882572153706665,0.9371876098168097,130.71217380070013,-226.44658900587956)" fill="none" stroke="#2c2891" filter="url(#bbburst-blur-2)"></use><use xlink:href="#bbburst-shape-8" width="33.89773293492036" opacity="0.48800704541151063" transform="matrix(0.8593744320461971,0.5113468348834049,-0.5113468348834049,0.8593744320461971,442.0614649576933,-129.06526406581236)" fill="none" stroke="#2c2891" filter="url(#bbburst-blur-2)"></use><use xlink:href="#bbburst-shape-1" width="16.332117760102392" opacity="0.7596249773908768" transform="matrix(0.9978855614536366,-0.06499543247306248,0.06499543247306248,0.9978855614536366,258.3982583590928,-10.998271632757621)" fill="#2c2891" filter="url(#bbburst-blur-1)"></use><use xlink:href="#bbburst-shape-10" width="11.487955328502931" opacity="0.8890487788155825" transform="matrix(0.9666927249788143,-0.255939788764925,0.255939788764925,0.9666927249788143,242.8769450338705,6.265687227536887)" fill="none" stroke="#2c2891"></use><use xlink:href="#bbburst-shape-4" width="23.99389708607429" opacity="0.5608380428304853" transform="matrix(0.9240969656155444,-0.3821580800403718,0.3821580800403718,0.9240969656155444,59.79052273537394,-54.388990576360584)" fill="#2c2891" filter="url(#bbburst-blur-1)"></use><use xlink:href="#bbburst-shape-1" width="11.800275651731296" opacity="0.8597366071223961" transform="matrix(0.7533117095163717,0.6576636437461947,-0.6576636437461947,0.7533117095163717,721.7130285020714,93.37215923876607)" fill="#2c2891"></use><use xlink:href="#bbburst-shape-6" width="15.574653400192801" opacity="0.7439151998403039" transform="matrix(0.955787313297409,-0.29405885761139827,0.29405885761139827,0.955787313297409,223.3812325288978,123.039241265302)" fill="#2c2891" filter="url(#bbburst-blur-1)"></use><use xlink:href="#bbburst-shape-6" width="23.093144735681243" opacity="0.3217608402284624" transform="matrix(0.9308541149713936,0.834272507422379,-0.834272507422379,0.9308541149713936,722.6517421573647,323.2330917017175)" fill="#2c2891" filter="url(#bbburst-blur-3)"></use><use xlink:href="#bbburst-shape-6" width="38.84906065661682" opacity="0.23122168296386247" transform="matrix(1.1361023571646631,0.5213170187562419,-0.5213170187562419,1.1361023571646631,284.15896525534976,-232.782965775701)" fill="#2c2891" filter="url(#bbburst-blur-3)"></use><use xlink:href="#bbburst-shape-1" width="37.28277059359149" opacity="0.29928432292260587" transform="matrix(0.9925439131259752,0.7598398387269363,-0.7598398387269363,0.9925439131259752,924.8515723898989,194.0229401473013)" fill="#2c2891" filter="url(#bbburst-blur-3)"></use><use xlink:href="#bbburst-shape-10" width="10.477319484875018" opacity="0.8611907357066886" transform="matrix(0.9900052561247222,0.14103046779126524,-0.14103046779126524,0.9900052561247222,443.61668416738894,65.25805839604283)" fill="none" stroke="#2c2891"></use><use xlink:href="#bbburst-shape-6" width="27.70586970842112" opacity="0.18118192026204816" transform="matrix(0.9093693146011178,0.857640629670664,-0.857640629670664,0.9093693146011178,715.3959863395255,-343.7884255159373)" fill="#2c2891" filter="url(#bbburst-blur-3)"></use><use xlink:href="#bbburst-shape-1" width="12.952628023310403" opacity="0.7506613187304161" transform="matrix(0.9353324308245583,0.35377004374003024,-0.35377004374003024,0.9353324308245583,640.6970493621257,62.46703834195296)" fill="#2c2891" filter="url(#bbburst-blur-1)"></use><use xlink:href="#bbburst-shape-8" width="29.67449075891134" opacity="0.06109607706974718" transform="matrix(1.396528844800873,-1.0546123390322812,1.0546123390322812,1.396528844800873,-408.45504475278756,68.31039841044037)" fill="none" stroke="#2c2891" filter="url(#bbburst-blur-4)"></use><use xlink:href="#bbburst-shape-10" width="32.9477650163483" opacity="0.34403235280970335" transform="matrix(0.8600943661487211,0.510134963827446,-0.510134963827446,0.8600943661487211,306.97658825278006,-36.68739783365652)" fill="none" stroke="#2c2891" filter="url(#bbburst-blur-2)"></use><use xlink:href="#bbburst-shape-6" width="9.70767962044745" opacity="0.8847830316762195" transform="matrix(0.891956210474319,0.45212179619687937,-0.45212179619687937,0.891956210474319,539.0597180608257,5.176742200843535)" fill="#2c2891"></use><use xlink:href="#bbburst-shape-1" width="33.00051064383741" opacity="0.4363649130345084" transform="matrix(0.9937581406714032,-0.11155607490995484,0.11155607490995484,0.9937581406714032,538.6324682597788,-152.0556618994861)" fill="#2c2891" filter="url(#bbburst-blur-2)"></use><use xlink:href="#bbburst-shape-6" width="22.479651357271354" opacity="0.6773958817169121" transform="matrix(0.8196881875182565,-0.5728099817941685,0.5728099817941685,0.8196881875182565,17.39468697415262,94.73505626329387)" fill="#2c2891" filter="url(#bbburst-blur-1)"></use><use xlink:href="#bbburst-shape-4" width="19.627190955262318" opacity="0.4137527638297459" transform="matrix(0.9953228170361591,0.09660481296086983,-0.09660481296086983,0.9953228170361591,689.9420287086599,-36.99446995507691)" fill="#2c2891" filter="url(#bbburst-blur-2)"></use><use xlink:href="#bbburst-shape-8" width="8.149593960604037" opacity="0.9755541818408968" transform="matrix(0.9060333496316925,0.42320629645029534,-0.42320629645029534,0.9060333496316925,560.5749542655501,26.071537069153862)" fill="none" stroke="#2c2891"></use><use xlink:href="#bbburst-shape-10" width="18.174975599698968" opacity="0.729595341160092" transform="matrix(0.8967790495598583,-0.4424786280381428,0.4424786280381428,0.8967790495598583,170.676255602089,-68.06789284897354)" fill="none" stroke="#2c2891" filter="url(#bbburst-blur-1)"></use><use xlink:href="#bbburst-shape-10" width="31.299712432853077" opacity="0.32063517903788097" transform="matrix(1.217480948850825,0.28326690450049935,-0.28326690450049935,1.217480948850825,526.6934180736187,-395.4136159854655)" fill="none" stroke="#2c2891" filter="url(#bbburst-blur-3)"></use><use xlink:href="#bbburst-shape-4" width="10.580502124952682" opacity="0.8844334978387549" transform="matrix(0.9996923274827066,-0.0248042410125541,0.0248042410125541,0.9996923274827066,430.7193315895524,-24.128721905575276)" fill="#2c2891"></use><use xlink:href="#bbburst-shape-4" width="17.954057800337313" opacity="0.6291575825258796" transform="matrix(0.9485576120141349,-0.3166045746511599,0.3166045746511599,0.9485576120141349,176.83340022836109,-118.34710324879933)" fill="#2c2891" filter="url(#bbburst-blur-1)"></use><use xlink:href="#bbburst-shape-8" width="21.471114312556743" opacity="0.6225819227569365" transform="matrix(0.9315761437067387,0.36354626731199124,-0.36354626731199124,0.9315761437067387,408.59852291863575,-89.50205179663624)" fill="none" stroke="#2c2891" filter="url(#bbburst-blur-1)"></use><use xlink:href="#bbburst-shape-1" width="14.893178229992271" opacity="0.6839131853963017" transform="matrix(0.9997444849498476,0.022604530792829428,-0.022604530792829428,0.9997444849498476,519.6304559995268,79.3254835750189)" fill="#2c2891" filter="url(#bbburst-blur-1)"></use><use xlink:href="#bbburst-shape-8" width="12.40903659497581" opacity="0.7457575368249032" transform="matrix(0.9783758475444135,0.20683496063709964,-0.20683496063709964,0.9783758475444135,516.6991061779338,114.54194020076739)" fill="none" stroke="#2c2891" filter="url(#bbburst-blur-1)"></use><use xlink:href="#bbburst-shape-10" width="15.38475733138472" opacity="0.7579313239958724" transform="matrix(0.9992025939293551,-0.03992713719825495,0.03992713719825495,0.9992025939293551,403.38297711715495,-104.89534536832338)" fill="none" stroke="#2c2891" filter="url(#bbburst-blur-1)"></use><use xlink:href="#bbburst-shape-10" width="26.659886443916236" opacity="0.054123678721950896" transform="matrix(1.2812572605048904,-1.1920066410903523,1.1920066410903523,1.2812572605048904,121.05490421335071,-464.0034174206621)" fill="none" stroke="#2c2891" filter="url(#bbburst-blur-4)"></use><use xlink:href="#bbburst-shape-4" width="27.999076127879142" opacity="0.3364784927661203" transform="matrix(0.998942741474942,-0.0459717223358804,0.0459717223358804,0.998942741474942,639.2745156488938,-122.8468576983019)" fill="#2c2891" filter="url(#bbburst-blur-2)"></use><use xlink:href="#bbburst-shape-1" width="28.323229863027237" opacity="0.025435598980356744" transform="matrix(1.4713038311566462,-0.9475046366238927,0.9475046366238927,1.4713038311566462,361.11194204592255,-424.18774615363134)" fill="#2c2891" filter="url(#bbburst-blur-4)"></use><use xlink:href="#bbburst-shape-1" width="38.22025154635017" opacity="0.2972393054099607" transform="matrix(0.9112667703424466,0.8556242593975738,-0.8556242593975738,0.9112667703424466,571.212827635577,295.63289623240667)" fill="#2c2891" filter="url(#bbburst-blur-3)"></use><use xlink:href="#bbburst-shape-6" width="17.024730733799085" opacity="0.643543027261954" transform="matrix(0.9968289164907381,0.07957456407609743,-0.07957456407609743,0.9968289164907381,382.2496360424528,-154.46093509172374)" fill="#2c2891" filter="url(#bbburst-blur-1)"></use><use xlink:href="#bbburst-shape-4" width="7.142799634225874" opacity="0.9110617346306475" transform="matrix(0.842263610050597,-0.5390658690591864,0.5390658690591864,0.842263610050597,205.49772093521418,33.09427597241756)" fill="#2c2891"></use><use xlink:href="#bbburst-shape-4" width="35.69638470639117" opacity="0.04198842247620305" transform="matrix(1.2767431108546183,1.1968404358498552,-1.1968404358498552,1.2767431108546183,620.6972814629663,-493.30230199042626)" fill="#2c2891" filter="url(#bbburst-blur-4)"></use><use xlink:href="#bbburst-shape-4" width="33.88035035810826" opacity="0.16637737709542355" transform="matrix(1.0511610092714911,-0.6764322084195429,0.6764322084195429,1.0511610092714911,206.20251618891706,-371.9893622926568)" fill="#2c2891" filter="url(#bbburst-blur-3)"></use><use xlink:href="#bbburst-shape-4" width="29.23026173566683" opacity="0.31187834344114673" transform="matrix(1.1979920489123,0.35681234667946893,-0.35681234667946893,1.1979920489123,470.5411673495063,-389.17124091836837)" fill="#2c2891" filter="url(#bbburst-blur-3)"></use><use xlink:href="#bbburst-shape-4" width="20.31260979307436" opacity="0.6552190048706588" transform="matrix(0.7307154364953481,0.6826821741245431,-0.6826821741245431,0.7307154364953481,745.6759020043282,-32.11994444887597)" fill="#2c2891" filter="url(#bbburst-blur-1)"></use><use xlink:href="#bbburst-shape-8" width="10.710461126975101" opacity="0.9727032378836438" transform="matrix(0.9406071914899717,-0.33949685023185067,0.33949685023185067,0.9406071914899717,260.5976139679321,37.77481998942949)" fill="none" stroke="#2c2891"></use><use xlink:href="#bbburst-shape-1" width="12.33878792135563" opacity="0.8038819429024128" transform="matrix(0.9093910438104423,0.4159422188686239,-0.4159422188686239,0.9093910438104423,493.1029463720307,90.35897200757466)" fill="#2c2891"></use><use xlink:href="#bbburst-shape-6" width="19.00697328892557" opacity="0.6174292719846666" transform="matrix(0.8251078065825215,0.5649753158471442,-0.5649753158471442,0.8251078065825215,790.0910884219312,73.17569362960296)" fill="#2c2891" filter="url(#bbburst-blur-1)"></use><use xlink:href="#bbburst-shape-6" width="37.80034137812143" opacity="0.10752149642429942" transform="matrix(1.6039450005214233,0.6999003038307182,-0.6999003038307182,1.6039450005214233,920.2335420802467,-551.5827632036992)" fill="#2c2891" filter="url(#bbburst-blur-4)"></use><use xlink:href="#bbburst-shape-4" width="27.1687345436232" opacity="0.49091797495464096" transform="matrix(0.8684941857129551,0.49569935382527075,-0.49569935382527075,0.8684941857129551,797.5680897180564,-43.09442122188591)" fill="#2c2891" filter="url(#bbburst-blur-2)"></use><use xlink:href="#bbburst-shape-10" width="43.28261586914843" opacity="-0.09276739239545817" transform="matrix(1.717098450455272,0.33774681559432007,-0.33774681559432007,1.717098450455272,149.54126809828128,-641.1830185076631)" fill="none" stroke="#2c2891" filter="url(#bbburst-blur-4)"></use><use xlink:href="#bbburst-shape-6" width="44.35484816170252" opacity="0.2593300079587695" transform="matrix(1.2354005262359822,0.1904876368058006,-0.1904876368058006,1.2354005262359822,147.9124429909797,44.997801625093246)" fill="#2c2891" filter="url(#bbburst-blur-3)"></use><use xlink:href="#bbburst-shape-4" width="29.59553907154758" opacity="0.15984915202821537" transform="matrix(1.2145896215824479,-0.29541843399525064,0.29541843399525064,1.2145896215824479,-101.98809997722479,-176.74765712443252)" fill="#2c2891" filter="url(#bbburst-blur-3)"></use><use xlink:href="#bbburst-shape-6" width="27.05970003477816" opacity="0.45235643003648196" transform="matrix(0.7807311457818892,0.624867088272457,-0.624867088272457,0.7807311457818892,635.9801344030174,325.66952690999614)" fill="#2c2891" filter="url(#bbburst-blur-2)"></use><use xlink:href="#bbburst-shape-10" width="13.004866949274868" opacity="0.6935250032681128" transform="matrix(0.9715761628514271,-0.23672718428371764,0.23672718428371764,0.9715761628514271,421.8050310854643,-49.83698630158176)" fill="none" stroke="#2c2891" filter="url(#bbburst-blur-1)"></use><use xlink:href="#bbburst-shape-1" width="26.82625659125022" opacity="0.5596622702072749" transform="matrix(0.7992667438741604,-0.6009764322640259,0.6009764322640259,0.7992667438741604,278.23632711763696,-61.74730319846239)" fill="#2c2891" filter="url(#bbburst-blur-1)"></use><use xlink:href="#bbburst-shape-10" width="17.4838613677394" opacity="0.774762386324275" transform="matrix(0.9357222191189026,-0.35273776186736266,0.35273776186736266,0.9357222191189026,154.1530520581275,59.56992569212417)" fill="none" stroke="#2c2891" filter="url(#bbburst-blur-1)"></use><use xlink:href="#bbburst-shape-10" width="12.635186353731838" opacity="0.8419397910076964" transform="matrix(0.9689523071346234,-0.24724770271630525,0.24724770271630525,0.9689523071346234,266.39800604207574,-51.150805110228646)" fill="none" stroke="#2c2891"></use><use xlink:href="#bbburst-shape-4" width="10.604954037365708" opacity="0.8412360064387192" transform="matrix(0.8691400209158361,-0.49456609673775653,0.49456609673775653,0.8691400209158361,250.02180890885688,103.48245167774752)" fill="#2c2891"></use><use xlink:href="#bbburst-shape-8" width="10.092944401050577" opacity="0.9192616278908615" transform="matrix(0.753179662588864,0.6578148644280737,-0.6578148644280737,0.753179662588864,695.6104493397107,93.56342100521397)" fill="none" stroke="#2c2891"></use><use xlink:href="#bbburst-shape-6" width="10.839904175386463" opacity="0.8299699669216978" transform="matrix(0.8688659808126267,0.4950473789310598,-0.4950473789310598,0.8688659808126267,597.7766402146599,-26.61242849318944)" fill="#2c2891"></use><use xlink:href="#bbburst-shape-6" width="27.129211526584896" opacity="0.4190524444197783" transform="matrix(0.9994271573646827,-0.033843125180009564,0.033843125180009564,0.9994271573646827,612.2391733451218,105.87102463787915)" fill="#2c2891" filter="url(#bbburst-blur-2)"></use><use xlink:href="#bbburst-shape-6" width="21.30437734669433" opacity="0.5843665616565235" transform="matrix(0.7697839043666865,0.6383045829210221,-0.6383045829210221,0.7697839043666865,643.5657544198698,272.2885175269982)" fill="#2c2891" filter="url(#bbburst-blur-1)"></use><use xlink:href="#bbburst-shape-10" width="49.87805034036546" opacity="-0.08806423882766645" transform="matrix(1.4148416408876447,1.0299141377854548,-1.0299141377854548,1.4148416408876447,428.8083551061986,152.93768585541034)" fill="none" stroke="#2c2891" filter="url(#bbburst-blur-4)"></use><use xlink:href="#bbburst-shape-1" width="10.869672211117823" opacity="0.9207890941197413" transform="matrix(0.7895804322184486,0.6136470818456874,-0.6136470818456874,0.7895804322184486,638.5879823227534,116.39587294853578)" fill="#2c2891"></use><use xlink:href="#bbburst-shape-4" width="34.26024241010809" opacity="0.04689612233922702" transform="matrix(1.7480124113809172,0.08338231022387771,-0.08338231022387771,1.7480124113809172,39.72490649383508,-527.9289835752802)" fill="#2c2891" filter="url(#bbburst-blur-4)"></use><use xlink:href="#bbburst-shape-10" width="29.184740488763655" opacity="0.22299743888749757" transform="matrix(1.0010740471796178,-0.7485657967496382,0.7485657967496382,1.0010740471796178,284.11642381856893,298.5773881535851)" fill="none" stroke="#2c2891" filter="url(#bbburst-blur-3)"></use><use xlink:href="#bbburst-shape-6" width="30.23759100907669" opacity="0.14236637331056934" transform="matrix(1.2212919509080864,-0.2663568483202945,0.2663568483202945,1.2212919509080864,-18.00132849293189,166.7083960800283)" fill="#2c2891" filter="url(#bbburst-blur-3)"></use><use xlink:href="#bbburst-shape-8" width="33.900197086336206" opacity="0.19530425659528317" transform="matrix(1.0738952630215146,0.6397256943877992,-0.6397256943877992,1.0738952630215146,551.5680910764664,311.3218210784579)" fill="none" stroke="#2c2891" filter="url(#bbburst-blur-3)"></use><use xlink:href="#bbburst-shape-10" width="24.747217021734787" opacity="0.551377621387307" transform="matrix(0.8042466771846841,0.5942956185581335,-0.5942956185581335,0.8042466771846841,563.4461706204445,262.30714480650613)" fill="none" stroke="#2c2891" filter="url(#bbburst-blur-2)"></use><use xlink:href="#bbburst-shape-8" width="39.86790211721847" opacity="0.39463922978319455" transform="matrix(0.880653972350075,0.47376004578692915,-0.47376004578692915,0.880653972350075,304.868196102306,91.92541371317947)" fill="none" stroke="#2c2891" filter="url(#bbburst-blur-2)"></use><use xlink:href="#bbburst-shape-10" width="10.592110650868403" opacity="0.8355454792997576" transform="matrix(0.9122023583638291,0.40973998754755214,-0.40973998754755214,0.9122023583638291,611.511655671631,-19.262167793209017)" fill="none" stroke="#2c2891"></use><use xlink:href="#bbburst-shape-1" width="11.856113396220824" opacity="0.7671130812918296" transform="matrix(0.9994794245816795,-0.03226266941644437,0.03226266941644437,0.9994794245816795,480.73998647282673,-32.27718805859831)" fill="#2c2891" filter="url(#bbburst-blur-1)"></use><use xlink:href="#bbburst-shape-4" width="29.271659120350552" opacity="0.2996938369826667" transform="matrix(1.2378123949188993,0.17412775478119122,-0.17412775478119122,1.2378123949188993,668.1247576491178,-326.5478000733299)" fill="#2c2891" filter="url(#bbburst-blur-3)"></use><use xlink:href="#bbburst-shape-10" width="32.19226837596898" opacity="-0.09871850768867363" transform="matrix(1.3546776809484635,1.1078575633808223,-1.1078575633808223,1.3546776809484635,1179.112847724967,181.54665005073048)" fill="none" stroke="#2c2891" filter="url(#bbburst-blur-4)"></use><use xlink:href="#bbburst-shape-6" width="26.20052840984821" opacity="0.45082517443268355" transform="matrix(0.742228576214942,0.670146805297123,-0.670146805297123,0.742228576214942,628.3789689942923,-150.97666122490062)" fill="#2c2891" filter="url(#bbburst-blur-2)"></use><use xlink:href="#bbburst-shape-10" width="21.426611926072727" opacity="0.6760359737169301" transform="matrix(0.8843009180859999,-0.4669174298227234,0.4669174298227234,0.8843009180859999,72.16131339529431,114.01067099321352)" fill="none" stroke="#2c2891" filter="url(#bbburst-blur-1)"></use><use xlink:href="#bbburst-shape-8" width="9.655199967312097" opacity="0.9322075720001497" transform="matrix(0.8435653798422469,0.5370264890409091,-0.5370264890409091,0.8435653798422469,634.5303901389495,79.07537813103602)" fill="none" stroke="#2c2891"></use><use xlink:href="#bbburst-shape-4" width="11.907522062127768" opacity="0.7848028253367851" transform="matrix(0.9120091861640277,0.4101697750352016,-0.4101697750352016,0.9120091861640277,614.8810712599854,111.59279711922585)" fill="#2c2891"></use><use xlink:href="#bbburst-shape-6" width="36.49118813569345" opacity="0.019585731317133148" transform="matrix(1.7368001463782268,0.21453496577614156,-0.21453496577614156,1.7368001463782268,714.2087299635725,57.73956744034342)" fill="#2c2891" filter="url(#bbburst-blur-4)"></use><use xlink:href="#bbburst-shape-6" width="42.379529623756326" opacity="-0.09891898875324379" transform="matrix(1.6773988544902583,0.49883171807210697,-0.49883171807210697,1.6773988544902583,908.5340158206945,-636.257226308027)" fill="#2c2891" filter="url(#bbburst-blur-4)"></use><use xlink:href="#bbburst-shape-4" width="15.189699613114197" opacity="0.8131389941571561" transform="matrix(0.8466242410149796,0.5321911259367351,-0.5321911259367351,0.8466242410149796,544.3065006674595,0.6610822597110086)" fill="#2c2891"></use><use xlink:href="#bbburst-shape-4" width="35.66478162526229" opacity="0.13935339072417108" transform="matrix(1.065967976533533,-0.6528493493946406,0.6528493493946406,1.065967976533533,483.3688686955518,-148.36982726668947)" fill="#2c2891" filter="url(#bbburst-blur-3)"></use><use xlink:href="#bbburst-shape-4" width="15.325401326509855" opacity="0.7522344268800936" transform="matrix(0.8395935042553366,-0.5432151945704795,0.5432151945704795,0.8395935042553366,239.47651493424894,-23.52302353588982)" fill="#2c2891" filter="url(#bbburst-blur-1)"></use><use xlink:href="#bbburst-shape-1" width="32.25310092626775" opacity="0.21186966963427012" transform="matrix(1.0368634992312762,0.6981504737245929,-0.6981504737245929,1.0368634992312762,956.5159390230668,-224.31263456443608)" fill="#2c2891" filter="url(#bbburst-blur-3)"></use><use xlink:href="#bbburst-shape-6" width="14.797858226804529" opacity="0.8534844681989683" transform="matrix(0.9572161395158375,-0.2893739142535083,0.2893739142535083,0.9572161395158375,213.0812720693878,34.743707087816006)" fill="#2c2891"></use><use xlink:href="#bbburst-shape-6" width="11.817541367422518" opacity="0.8286773194248857" transform="matrix(0.7398704739119788,0.6727493454721929,-0.6727493454721929,0.7398704739119788,685.3997648403208,174.34891413470882)" fill="#2c2891"></use><use xlink:href="#bbburst-shape-4" width="27.994912321321074" opacity="0.4722638202682621" transform="matrix(0.7961062376565274,0.6051568873972837,-0.6051568873972837,0.7961062376565274,396.3286086217211,36.06923995392043)" fill="#2c2891" filter="url(#bbburst-blur-2)"></use><use xlink:href="#bbburst-shape-6" width="35.13181100053054" opacity="0.4317966706287585" transform="matrix(0.7777117712534654,-0.6286210311895376,0.6286210311895376,0.7777117712534654,-83.02268936083934,233.71860627639137)" fill="#2c2891" filter="url(#bbburst-blur-2)"></use><use xlink:href="#bbburst-shape-1" width="14.892935932521686" opacity="0.7011471289359275" transform="matrix(0.7562822432184797,-0.6542454956607835,0.6542454956607835,0.7562822432184797,131.7647194473535,-32.10723240594808)" fill="#2c2891" filter="url(#bbburst-blur-1)"></use><use xlink:href="#bbburst-shape-10" width="31.60515622446784" opacity="0.32859308914340546" transform="matrix(1.2437984203334236,-0.1243603215502438,0.1243603215502438,1.2437984203334236,116.54998283351662,-308.7834637023256)" fill="none" stroke="#2c2891" filter="url(#bbburst-blur-3)"></use><use xlink:href="#bbburst-shape-6" width="20.17340776091383" opacity="0.6577394283953757" transform="matrix(0.7584291639951752,-0.6517554780756197,0.6517554780756197,0.7584291639951752,278.01481073663234,151.1405083276162)" fill="#2c2891" filter="url(#bbburst-blur-1)"></use><use xlink:href="#bbburst-shape-10" width="11.422444823088352" opacity="0.8204668516240592" transform="matrix(0.9774130322796789,0.21133803332538947,-0.21133803332538947,0.9774130322796789,555.7443461705288,32.9296170580501)" fill="none" stroke="#2c2891"></use><use xlink:href="#bbburst-shape-4" width="27.915158546556768" opacity="0.5171770528052637" transform="matrix(0.9796129860692916,0.2008939957400566,-0.2008939957400566,0.9796129860692916,564.6456323435613,199.3060680993501)" fill="#2c2891" filter="url(#bbburst-blur-2)"></use><use xlink:href="#bbburst-shape-1" width="14.75061637322771" opacity="0.6780804568718835" transform="matrix(0.9520053681781827,0.30608132736239047,-0.30608132736239047,0.9520053681781827,620.5162252272642,-82.72714763718164)" fill="#2c2891" filter="url(#bbburst-blur-1)"></use><use xlink:href="#bbburst-shape-6" width="11.452857146240243" opacity="0.8221821458508133" transform="matrix(0.738826764478044,-0.6738954014466229,0.6738954014466229,0.738826764478044,50.506866501539946,82.41012387038597)" fill="#2c2891"></use><use xlink:href="#bbburst-shape-4" width="19.923961296352694" opacity="0.585803940808526" transform="matrix(0.9879776814008717,-0.154596575168267,0.154596575168267,0.9879776814008717,483.0666037027627,-97.53039853098954)" fill="#2c2891" filter="url(#bbburst-blur-1)"></use><use xlink:href="#bbburst-shape-10" width="23.483524456300348" opacity="0.5398988607939863" transform="matrix(0.8620896777534954,0.5067557473881026,-0.5067557473881026,0.8620896777534954,797.941590041016,22.862394956018306)" fill="none" stroke="#2c2891" filter="url(#bbburst-blur-2)"></use><use xlink:href="#bbburst-shape-1" width="13.339233650255148" opacity="0.7668988364264935" transform="matrix(0.9755887849146779,0.21960537959872997,-0.21960537959872997,0.9755887849146779,565.3185541582453,-54.52655876480611)" fill="#2c2891" filter="url(#bbburst-blur-1)"></use><use xlink:href="#bbburst-shape-6" width="31.640955396943145" opacity="0.42751042403820827" transform="matrix(0.9251111785998298,-0.3796963355493884,0.3796963355493884,0.9251111785998298,379.0726858181373,-176.57586358277047)" fill="#2c2891" filter="url(#bbburst-blur-2)"></use><use xlink:href="#bbburst-shape-6" width="11.588323207147205" opacity="0.7855390336188224" transform="matrix(0.9470105571255869,-0.32120243568921686,0.32120243568921686,0.9470105571255869,249.1179088556172,-71.9566822074064)" fill="#2c2891"></use><use xlink:href="#bbburst-shape-4" width="9.133262419665947" opacity="0.9590130619874646" transform="matrix(0.8944082111906478,0.44725155310490033,-0.44725155310490033,0.8944082111906478,589.9173384146097,29.617352424223384)" fill="#2c2891"></use><use xlink:href="#bbburst-shape-6" width="27.713642119103213" opacity="0.4270512534173444" transform="matrix(0.9993715818372512,0.03544631738432556,-0.03544631738432556,0.9993715818372512,180.8349604708407,-135.5039332641286)" fill="#2c2891" filter="url(#bbburst-blur-2)"></use><use xlink:href="#bbburst-shape-10" width="34.45325457342215" opacity="0.21436816966183703" transform="matrix(0.9983017712226571,-0.752258980387543,0.752258980387543,0.9983017712226571,164.4727157228849,357.3940686199514)" fill="none" stroke="#2c2891" filter="url(#bbburst-blur-3)"></use><use xlink:href="#bbburst-shape-6" width="31.427005240965702" opacity="0.47568915172325266" transform="matrix(0.9712628998042928,-0.23800920037628034,0.23800920037628034,0.9712628998042928,150.83259870844847,206.10007864687822)" fill="#2c2891" filter="url(#bbburst-blur-2)"></use><use xlink:href="#bbburst-shape-4" width="24.016204804207717" opacity="0.5788781360867059" transform="matrix(0.7743379297073427,0.6327722897034496,-0.6327722897034496,0.7743379297073427,802.769662694094,185.83222396486906)" fill="#2c2891" filter="url(#bbburst-blur-1)"></use><use xlink:href="#bbburst-shape-4" width="21.6669915989244" opacity="0.7114718518146941" transform="matrix(0.9810514039519809,0.19374762657603625,-0.19374762657603625,0.9810514039519809,372.2737833663783,94.43763686482907)" fill="#2c2891" filter="url(#bbburst-blur-1)"></use><use xlink:href="#bbburst-shape-4" width="41.45831833663563" opacity="0.3205146724403747" transform="matrix(0.9213482799253826,-0.8447587508150116,0.8447587508150116,0.9213482799253826,-174.2722326258173,264.1211279376088)" fill="#2c2891" filter="url(#bbburst-blur-3)"></use><use xlink:href="#bbburst-shape-10" width="16.909137135362265" opacity="0.6987647710696618" transform="matrix(0.7436913489722967,0.6685231315846637,-0.6685231315846637,0.7436913489722967,795.0306866321105,75.80563191414501)" fill="none" stroke="#2c2891" filter="url(#bbburst-blur-1)"></use><use xlink:href="#bbburst-shape-6" width="38.93460689869092" opacity="0.10926596155269575" transform="matrix(1.4977483944572791,-0.9051241610412589,0.9051241610412589,1.4977483944572791,311.5427003004121,81.2152458966633)" fill="#2c2891" filter="url(#bbburst-blur-4)"></use><use xlink:href="#bbburst-shape-10" width="10.02506435162533" opacity="0.9379158557223679" transform="matrix(0.8774741006199513,-0.47962402227287104,0.47962402227287104,0.8774741006199513,179.66097845786695,37.26718220904337)" fill="none" stroke="#2c2891"></use><use xlink:href="#bbburst-shape-6" width="35.646604170589065" opacity="0.15593109883698175" transform="matrix(0.9292853092290059,-0.8360196253983222,0.8360196253983222,0.9292853092290059,-72.95880773583309,-316.5219438663932)" fill="#2c2891" filter="url(#bbburst-blur-3)"></use><use xlink:href="#bbburst-shape-10" width="11.814220906612542" opacity="0.8828992160717168" transform="matrix(0.9707719885379528,-0.2400036380350698,0.2400036380350698,0.9707719885379528,262.3338266562632,51.65521196646341)" fill="none" stroke="#2c2891"></use><use xlink:href="#bbburst-shape-1" width="16.563567482496598" opacity="0.6775811165381935" transform="matrix(0.9848388960740606,0.17347146387698917,-0.17347146387698917,0.9848388960740606,430.04665819559966,146.34692439580908)" fill="#2c2891" filter="url(#bbburst-blur-1)"></use><use xlink:href="#bbburst-shape-6" width="9.86265648294564" opacity="0.9130592631286503" transform="matrix(0.9574567000357507,-0.2885769698999739,0.2885769698999739,0.9574567000357507,273.80513419503086,-20.21338864368454)" fill="#2c2891"></use><use xlink:href="#bbburst-shape-1" width="15.7367371361571" opacity="0.6725333334415919" transform="matrix(0.7231368884835382,0.6907047419225866,-0.6907047419225866,0.7231368884835382,714.5175420386072,-35.33142157753343)" fill="#2c2891" filter="url(#bbburst-blur-1)"></use><use xlink:href="#bbburst-shape-6" width="18.05450381011176" opacity="0.636482048714666" transform="matrix(0.963975233896246,-0.26599200821580676,0.26599200821580676,0.963975233896246,348.0606905820888,167.70959302167927)" fill="#2c2891" filter="url(#bbburst-blur-1)"></use><use xlink:href="#bbburst-shape-10" width="31.298301595296785" opacity="0.16831035076633538" transform="matrix(1.1336716244059266,-0.5265820430064319,0.5265820430064319,1.1336716244059266,534.4803416283786,46.46523099094236)" fill="none" stroke="#2c2891" filter="url(#bbburst-blur-3)"></use><use xlink:href="#bbburst-shape-8" width="16.042978272001506" opacity="0.6900056541074518" transform="matrix(0.7581618702420342,-0.6520663911835212,0.6520663911835212,0.7581618702420342,221.76387127609672,209.65429967663795)" fill="none" stroke="#2c2891" filter="url(#bbburst-blur-1)"></use><use xlink:href="#bbburst-shape-10" width="21.080793403396097" opacity="0.522703208481148" transform="matrix(0.970549981815734,-0.24089983976225127,0.24089983976225127,0.970549981815734,212.1009951616426,-184.4792245653083)" fill="none" stroke="#2c2891" filter="url(#bbburst-blur-2)"></use><use xlink:href="#bbburst-shape-8" width="25.620049029723916" opacity="0.47122287853125167" transform="matrix(0.8941615923277348,0.44774439896656415,-0.44774439896656415,0.8941615923277348,608.0029229111467,-197.9022322036277)" fill="none" stroke="#2c2891" filter="url(#bbburst-blur-2)"></use><use xlink:href="#bbburst-shape-4" width="22.321098020141452" opacity="0.5519461008530584" transform="matrix(0.7404424161510029,-0.6721198020922051,0.6721198020922051,0.7404424161510029,314.0219197136398,175.56925955918297)" fill="#2c2891" filter="url(#bbburst-blur-2)"></use><use xlink:href="#bbburst-shape-6" width="37.39904363929042" opacity="0.33256939383866846" transform="matrix(1.0036665663095636,0.7450861853989578,-0.7450861853989578,1.0036665663095636,976.8398773184954,25.29787614053606)" fill="#2c2891" filter="url(#bbburst-blur-3)"></use><use xlink:href="#bbburst-shape-6" width="20.097334215306454" opacity="0.5062076240304378" transform="matrix(0.9075688510837141,-0.41990329903751317,0.41990329903751317,0.9075688510837141,269.80687795052984,258.39542863337397)" fill="#2c2891" filter="url(#bbburst-blur-2)"></use><use xlink:href="#bbburst-shape-1" width="26.258599654458735" opacity="0.5495365695710498" transform="matrix(0.8071256298365889,-0.5903797232806102,0.5903797232806102,0.8071256298365889,-37.07138930257483,154.6455626748122)" fill="#2c2891" filter="url(#bbburst-blur-2)"></use><use xlink:href="#bbburst-shape-6" width="16.040578033192215" opacity="0.5991714439971182" transform="matrix(0.9793799062350476,0.20202722406405862,-0.20202722406405862,0.9793799062350476,501.74360207346353,-171.43286463937883)" fill="#2c2891" filter="url(#bbburst-blur-1)"></use><use xlink:href="#bbburst-shape-6" width="20.32278719230478" opacity="0.5694382533225524" transform="matrix(0.9689209591165995,0.24737052165641935,-0.24737052165641935,0.9689209591165995,473.49759797410314,-183.20514005539601)" fill="#2c2891" filter="url(#bbburst-blur-1)"></use><use xlink:href="#bbburst-shape-4" width="23.660902637660758" opacity="0.36483623565740264" transform="matrix(0.9690555483900526,0.24684275183698318,-0.24684275183698318,0.9690555483900526,584.7068264756568,278.1802888099945)" fill="#2c2891" filter="url(#bbburst-blur-2)"></use><use xlink:href="#bbburst-shape-6" width="9.984570598983582" opacity="0.8805698832910531" transform="matrix(0.9741255556566464,0.22600752601767488,-0.22600752601767488,0.9741255556566464,534.4115347861782,31.580714298189207)" fill="#2c2891"></use><use xlink:href="#bbburst-shape-6" width="11.055890136404658" opacity="0.9345046070414273" transform="matrix(0.7846187481657108,0.6199785641672403,-0.6199785641672403,0.7846187481657108,617.3645837483266,96.04904701688673)" fill="#2c2891"></use><use xlink:href="#bbburst-shape-4" width="18.24694414880225" opacity="0.7391509783438954" transform="matrix(0.983502161840381,-0.18089637269800926,0.18089637269800926,0.983502161840381,244.26030444584876,-82.51700087554195)" fill="#2c2891" filter="url(#bbburst-blur-1)"></use><use xlink:href="#bbburst-shape-4" width="13.974237637560757" opacity="0.8176816467021452" transform="matrix(0.9982460967257508,0.05920076327044215,-0.05920076327044215,0.9982460967257508,451.99812726613055,-73.76337914067307)" fill="#2c2891"></use><use xlink:href="#bbburst-shape-10" width="29.456664680660907" opacity="0.2328898051467777" transform="matrix(1.0461903829312245,0.6840947906995185,-0.6840947906995185,1.0461903829312245,474.90176381784823,-321.04752714561647)" fill="none" stroke="#2c2891" filter="url(#bbburst-blur-3)"></use><use xlink:href="#bbburst-shape-4" width="18.73646153069079" opacity="0.6782957602753237" transform="matrix(0.7638559082697264,-0.6453868230770066,0.6453868230770066,0.7638559082697264,153.54907170386497,244.05138767017797)" fill="#2c2891" filter="url(#bbburst-blur-1)"></use><use xlink:href="#bbburst-shape-10" width="35.82840712857569" opacity="0.39595821995407077" transform="matrix(0.7312061446564955,-0.6821565612207979,0.6821565612207979,0.7312061446564955,272.5622549294666,340.5446442532532)" fill="none" stroke="#2c2891" filter="url(#bbburst-blur-2)"></use><use xlink:href="#bbburst-shape-10" width="12.555998153579903" opacity="0.7892124083291192" transform="matrix(0.9973327584882044,0.07298882685938383,-0.07298882685938383,0.9973327584882044,517.7820782354374,-0.5114470499439108)" fill="none" stroke="#2c2891"></use><use xlink:href="#bbburst-shape-1" width="35.41120444664401" opacity="0.17402830478160602" transform="matrix(1.2090377227048807,-0.317376409136842,0.317376409136842,1.2090377227048807,-111.52107980563672,1.1351646746385882)" fill="#2c2891" filter="url(#bbburst-blur-3)"></use><use xlink:href="#bbburst-shape-1" width="17.511509346762935" opacity="0.6422760826199871" transform="matrix(0.9996045399358778,-0.028120521680475373,0.028120521680475373,0.9996045399358778,223.36731473033507,-36.712706184872616)" fill="#2c2891" filter="url(#bbburst-blur-1)"></use><use xlink:href="#bbburst-shape-4" width="24.076765613857948" opacity="0.5728253680412703" transform="matrix(0.9966182625972456,-0.08217078956446451,0.08217078956446451,0.9966182625972456,479.5591920621659,148.8923176757928)" fill="#2c2891" filter="url(#bbburst-blur-1)"></use><use xlink:href="#bbburst-shape-4" width="29.717207786575898" opacity="0.07697497512035045" transform="matrix(1.6280219179428062,0.6419070296373355,-0.6419070296373355,1.6280219179428062,384.68038676991034,72.5884584377452)" fill="#2c2891" filter="url(#bbburst-blur-4)"></use><use xlink:href="#bbburst-shape-4" width="29.033434347921286" opacity="0.5758864531809468" transform="matrix(0.8045357268125714,-0.5939042551473828,0.5939042551473828,0.8045357268125714,3.3629206927745656,208.04688635225102)" fill="#2c2891" filter="url(#bbburst-blur-1)"></use><use xlink:href="#bbburst-shape-8" width="36.255159577087014" opacity="0.4005228576936525" transform="matrix(0.8472510544123645,-0.5311926682449003,0.5311926682449003,0.8472510544123645,96.57771751566287,329.6876430488644)" fill="none" stroke="#2c2891" filter="url(#bbburst-blur-2)"></use><use xlink:href="#bbburst-shape-6" width="15.688205255049605" opacity="0.616976836221721" transform="matrix(0.9567645314069482,-0.2908635959374133,0.2908635959374133,0.9567645314069482,440.5395415874295,-32.23219921886556)" fill="#2c2891" filter="url(#bbburst-blur-1)"></use><use xlink:href="#bbburst-shape-8" width="24.370536616759605" opacity="0.5358951274214163" transform="matrix(0.9926790833646746,0.1207817761513274,-0.1207817761513274,0.9926790833646746,520.6588494912144,-189.55822601583824)" fill="none" stroke="#2c2891" filter="url(#bbburst-blur-2)"></use><use xlink:href="#bbburst-shape-4" width="33.631815613110284" opacity="0.25313076135283963" transform="matrix(1.229664256731637,0.22455693201642896,-0.22455693201642896,1.229664256731637,133.12105341482686,-102.66948714595685)" fill="#2c2891" filter="url(#bbburst-blur-3)"></use><use xlink:href="#bbburst-shape-10" width="24.161491969469147" opacity="0.7201350417589436" transform="matrix(0.9723683253331792,0.23345200767769944,-0.23345200767769944,0.9723683253331792,371.84872277280317,-53.47589364817577)" fill="none" stroke="#2c2891" filter="url(#bbburst-blur-1)"></use><use xlink:href="#bbburst-shape-6" width="43.758252599434776" opacity="0.13164935339776085" transform="matrix(1.2483750841027366,0.06371537798275503,-0.06371537798275503,1.2483750841027366,118.24702170178466,-373.38470528722996)" fill="#2c2891" filter="url(#bbburst-blur-3)"></use><use xlink:href="#bbburst-shape-8" width="8.186556403947034" opacity="0.8765817944451295" transform="matrix(0.8625771102075136,0.5059256160208288,-0.5059256160208288,0.8625771102075136,615.7394514939367,-0.006197347368583905)" fill="none" stroke="#2c2891"></use><use xlink:href="#bbburst-shape-4" width="26.712596198840366" opacity="0.47883412803978553" transform="matrix(0.7977110829258541,0.6030398230442672,-0.6030398230442672,0.7977110829258541,863.3303567012076,101.40464286226563)" fill="#2c2891" filter="url(#bbburst-blur-2)"></use><use xlink:href="#bbburst-shape-6" width="10.692254827253958" opacity="0.822287051253641" transform="matrix(0.995360200031057,-0.0962188764959056,0.0962188764959056,0.995360200031057,321.2377542924385,74.29815336021198)" fill="#2c2891"></use><use xlink:href="#bbburst-shape-4" width="29.796844005425328" opacity="0.23094935462927635" transform="matrix(1.1610103129799083,0.46320087775639596,-0.46320087775639596,1.1610103129799083,736.359837901211,-373.61692243146626)" fill="#2c2891" filter="url(#bbburst-blur-3)"></use><use xlink:href="#bbburst-shape-4" width="24.32234337431694" opacity="0.356256149475352" transform="matrix(0.8988766131490282,0.4382018191812218,-0.4382018191812218,0.8988766131490282,666.5836128885348,-235.90120680993942)" fill="#2c2891" filter="url(#bbburst-blur-2)"></use><use xlink:href="#bbburst-shape-10" width="21.502380508383617" opacity="0.5542616766372881" transform="matrix(0.9826423150130313,-0.18551032517310345,0.18551032517310345,0.9826423150130313,114.93582797823719,19.6597917300748)" fill="none" stroke="#2c2891" filter="url(#bbburst-blur-2)"></use><use xlink:href="#bbburst-shape-1" width="31.481948533160086" opacity="0.18145926961829373" transform="matrix(0.9234775451146783,-0.8424305453086132,0.8424305453086132,0.9234775451146783,416.7782734053194,35.737752957431724)" fill="#2c2891" filter="url(#bbburst-blur-3)"></use><use xlink:href="#bbburst-shape-10" width="25.641292357035415" opacity="0.0706741088390005" transform="matrix(1.2711534416307246,1.2027755101557247,-1.2027755101557247,1.2711534416307246,1230.068909092427,79.7765483607393)" fill="none" stroke="#2c2891" filter="url(#bbburst-blur-4)"></use><use xlink:href="#bbburst-shape-10" width="27.186068938192417" opacity="0.4613036800186653" transform="matrix(0.9891250985238408,-0.14707664488355102,0.14707664488355102,0.9891250985238408,514.700655401632,160.63463861102804)" fill="none" stroke="#2c2891" filter="url(#bbburst-blur-2)"></use><use xlink:href="#bbburst-shape-6" width="14.923083404085064" opacity="0.7711657897752088" transform="matrix(0.9713701532198009,-0.23757109553508507,0.23757109553508507,0.9713701532198009,380.05430619580403,75.07617661486643)" fill="#2c2891" filter="url(#bbburst-blur-1)"></use><use xlink:href="#bbburst-shape-1" width="13.82676672127496" opacity="0.7726802886643114" transform="matrix(0.9441700357075709,-0.3294585613881728,0.3294585613881728,0.9441700357075709,256.6298081327343,126.79487950540454)" fill="#2c2891" filter="url(#bbburst-blur-1)"></use><use xlink:href="#bbburst-shape-4" width="13.239258507564166" opacity="0.7172811498400231" transform="matrix(0.9974529763306665,-0.07132713375073195,0.07132713375073195,0.9974529763306665,491.41806527577245,14.56786919109868)" fill="#2c2891" filter="url(#bbburst-blur-1)"></use><use xlink:href="#bbburst-shape-4" width="34.43222265826923" opacity="0.1205264947282263" transform="matrix(1.0478807187352592,-0.6815027507669186,0.6815027507669186,1.0478807187352592,267.58840230700065,355.37828891360255)" fill="#2c2891" filter="url(#bbburst-blur-3)"></use></svg>